<svg xmlns="http://www.w3.org/2000/svg" xmlns:xlink="http://www.w3.org/1999/xlink" viewBox="0 0 46 58"><defs><path fill="#A2CEFD" d="M98 37.05q0-12-12-12h-20q-12 0-12 12v32q0 12 12 12h20q12 0 12-12v-32z" id="a"/><path fill="#fff" d="M81.55 19.05q1.25-.7 1.25-1.7t-1.25-1.7q-1.2-.7-2.9-.7t-2.95.7q-1.2.7-1.2 1.7t1.2 1.7q1.25.7 2.95.7 1.7 0 2.9-.7z" id="b"/><path d="M28.25 45.15q.6.55 1.25.55.8 0 1.4-.55.55-.5.55-1.2 0-.8-.55-1.3-.6-.55-1.4-.55-.65 0-1.25.55-.55.6-.55 1.3 0 .65.55 1.2m-3.7-35.75h-.9v30.6q-1.4-1.6-4.35-1.6-2.95 0-5.55 2.25-2.65 2.3-2.65 5 0 1.6 1.4 2.5 1.25.9 3.3.9 3.35 0 6-1.9 2.75-2 2.75-4.75v-33m-12.6 36.65q0-1.9 3.6-4.2 3.45-2.25 5.9-2.25 2.2 0 2.2 1.8 0 2-3.5 4.3-3.4 2.25-5.95 2.25-2.25 0-2.25-1.9z" id="c"/></defs><use xlink:href="#a" transform="translate(-53 -24.05)"/><use xlink:href="#b" transform="matrix(.452 -.452 .452 .452 -37.5 33.75)"/><use xlink:href="#c"/></svg>